<svg width="41" height="24" viewBox="0 0 41 24" fill="none" xmlns="http://www.w3.org/2000/svg">
<path d="M10.218 21.364C7.53133 21.364 5.434 20.6273 3.926 19.154C2.418 17.6807 1.664 15.592 1.664 12.888V2.8H6.812V12.732C6.812 14.292 7.11533 15.41 7.722 16.086C8.346 16.762 9.19533 17.1 10.27 17.1C11.3447 17.1 12.1853 16.762 12.792 16.086C13.3987 15.41 13.702 14.292 13.702 12.732V2.8H18.772V12.888C18.772 15.592 18.018 17.6807 16.51 19.154C15.002 20.6273 12.9047 21.364 10.218 21.364Z" fill="black"/>
<path d="M22.7795 21V2.8H31.0995C32.7635 2.8 34.1935 3.06867 35.3895 3.606C36.6028 4.14333 37.5388 4.92333 38.1975 5.946C38.8561 6.95133 39.1855 8.14733 39.1855 9.534C39.1855 10.9033 38.8561 12.0907 38.1975 13.096C37.5388 14.1013 36.6028 14.8813 35.3895 15.436C34.1935 15.9733 32.7635 16.242 31.0995 16.242H25.6395L27.9275 14.006V21H22.7795ZM27.9275 14.552L25.6395 12.186H30.7875C31.8621 12.186 32.6595 11.952 33.1795 11.484C33.7168 11.016 33.9855 10.366 33.9855 9.534C33.9855 8.68467 33.7168 8.026 33.1795 7.558C32.6595 7.09 31.8621 6.856 30.7875 6.856H25.6395L27.9275 4.49V14.552Z" fill="#2696E8"/>
</svg>
