<svg width="43" height="31" viewBox="0 0 43 31" fill="none" xmlns="http://www.w3.org/2000/svg">
<path d="M15.2222 7V1C15.2222 1 12.752 1.12863 11.2222 1.5C9.60099 1.89356 8.70248 2.2305 7.22222 3L3.22222 7.5C1.97521 9.63198 1.22222 13.5 1.22222 13.5C1.22222 13.5 0.722222 17 1.22222 21.5C1.72222 26 2.72222 30 2.72222 30H16.4188V17.2882H9.46866V14.5L9.4714 14.4511C9.53568 13.306 9.61346 11.9205 10.2222 10.5C11.7222 7 15.2222 7 15.2222 7Z" fill="#2696E8"/>
<path d="M9.46866 17.2882H16.4188V30H2.72222C2.72222 30 1.72222 26 1.22222 21.5C0.722222 17 1.22222 13.5 1.22222 13.5C1.22222 13.5 1.97521 9.63198 3.22222 7.5M9.46866 17.2882C9.46866 17.2882 9.46866 16 9.46866 14.5M9.46866 17.2882V14.5M7.22222 3C5.34581 4.41688 4.40934 5.47041 3.22222 7.5M7.22222 3C5.66013 4.75736 3.22222 7.5 3.22222 7.5M7.22222 3C8.70248 2.2305 9.60099 1.89356 11.2222 1.5C12.752 1.12863 15.2222 1 15.2222 1V7C15.2222 7 11.7222 7 10.2222 10.5C9.61346 11.9205 9.53568 13.306 9.4714 14.4511M7.22222 3L3.22222 7.5M9.46866 14.5L9.4714 14.4511M9.46866 14.5C9.46957 14.4837 9.47049 14.4674 9.4714 14.4511" stroke="#2696E8"/>
<path d="M41.2222 7V1C41.2222 1 38.752 1.12863 37.2222 1.5C35.601 1.89356 34.7025 2.2305 33.2222 3L29.2222 7.5C27.9752 9.63198 27.2222 13.5 27.2222 13.5C27.2222 13.5 26.7222 17 27.2222 21.5C27.7222 26 28.7222 30 28.7222 30H42.4188V17.2882H35.4687V14.5L35.4714 14.4511C35.5357 13.306 35.6135 11.9205 36.2222 10.5C37.7222 7 41.2222 7 41.2222 7Z" fill="#2696E8"/>
<path d="M35.4687 17.2882H42.4188V30H28.7222C28.7222 30 27.7222 26 27.2222 21.5C26.7222 17 27.2222 13.5 27.2222 13.5C27.2222 13.5 27.9752 9.63198 29.2222 7.5M35.4687 17.2882C35.4687 17.2882 35.4687 16 35.4687 14.5M35.4687 17.2882V14.5M33.2222 3C31.3458 4.41688 30.4093 5.47041 29.2222 7.5M33.2222 3C31.6601 4.75736 29.2222 7.5 29.2222 7.5M33.2222 3C34.7025 2.2305 35.601 1.89356 37.2222 1.5C38.752 1.12863 41.2222 1 41.2222 1V7C41.2222 7 37.7222 7 36.2222 10.5C35.6135 11.9205 35.5357 13.306 35.4714 14.4511M33.2222 3L29.2222 7.5M35.4687 14.5L35.4714 14.4511M35.4687 14.5C35.4696 14.4837 35.4705 14.4674 35.4714 14.4511" stroke="#2696E8"/>
</svg>
